<?xml version="1.0" encoding="UTF-8"?> <svg xmlns="http://www.w3.org/2000/svg" xmlns:xlink="http://www.w3.org/1999/xlink" version="1.1" id="Capa_1" x="0px" y="0px" viewBox="0 0 1000 240" style="enable-background:new 0 0 1000 240;" xml:space="preserve"> <style type="text/css"> .st0{fill:#2873B6;} .st1{fill:#DF0209;} </style> <g> <g> <path class="st0" d="M294.3,49c17.1,0,25.1,1.9,32.7,7.6c8.1,6.1,13,17.2,13,28.3c0,11.3-5.1,22.7-12.5,28.3c-8.1,6.1-16.3,8-32,8 h-19.6V168h-13.6V49H294.3z M275.9,109.5h19.4c10.2,0,16.4-1.1,22.5-5c5.3-3.4,9-10.9,9-19.3c0-8.5-3.8-16.1-9.2-19.5 c-6.1-3.9-12.3-5-22.7-5h-19.1V109.5z"></path> <path class="st0" d="M345.6,81.5h11.5v14.1c6.4-12.9,17.9-16.2,28.3-16.6v11.7h-1.1c-17.1,0-26.6,10.4-26.6,30.1V168h-12V81.5z"></path> <path class="st0" d="M390.3,49h12.2v16.6h-12.2V49z M390.3,81.5h12.2V168h-12.2V81.5z"></path> <path class="st0" d="M572.2,128.1c0.7,21.7,19.6,32.2,34.5,32c13.6,0,24.7-6.6,30.4-17.8h12.7c-4.1,9.3-10.4,16.4-17.9,21.1 c-7.4,4.7-16.1,7.1-25.1,7.1c-30.7,0-46.7-24-46.7-45.5c0-25.4,20-45.8,46.5-45.8c12.5,0,24,4.3,32.4,12.2 c10.2,9.6,15.1,23,13.8,36.8H572.2z M640.8,118.6c-0.8-15.1-15.8-29.9-34-29.4c-19.1,0-33.2,13.7-34.3,29.4H640.8z"></path> <path class="st1" d="M726.5,49h12.2v16.6h-12.2V49z M726.5,81.5h12.2V168h-12.2V81.5z"></path> <path class="st1" d="M856.2,128.1c0.7,21.7,19.6,32.2,34.5,32c13.6,0,24.7-6.6,30.4-17.8h12.7c-4.1,9.3-10.4,16.4-17.9,21.1 c-7.4,4.7-16.1,7.1-25.1,7.1c-30.7,0-46.7-24-46.7-45.5c0-25.4,20-45.8,46.5-45.8c12.5,0,24,4.3,32.4,12.2 c10.2,9.6,15.1,23,13.8,36.8H856.2z M924.7,118.6c-0.8-15.1-15.8-29.9-34-29.4c-19.1,0-33.2,13.7-34.3,29.4H924.7z"></path> <path class="st1" d="M985.5,103.2c0-9.2-6.2-14.3-15.1-14.3c-9.7,0-15.6,6.4-15.3,14c0.3,8.2,6.7,11.6,17.4,14.6 c12.7,3.4,26.8,6.9,27.4,25.4c0.7,15.9-12.5,27.5-29.3,27.5c-14.3,0-30.1-8.8-30.2-27h12c0.5,11.9,9.5,17.2,18.4,17.2 c10.2,0,17.3-7.4,17.1-16.2c-0.3-9.8-6.9-13.8-22.2-18.2c-12.7-3.7-22.5-8.7-22.8-22.3c0-15.6,12.7-24.8,27.6-24.8 c12.3,0,26.1,6.6,26.9,24.1H985.5z"></path> <g> <path class="st0" d="M428.6,95.2c5.6-10.9,17.9-16.1,27.9-16.1c9.2,0,17.9,2.9,24.2,9.8c2.3,2.3,5.3,8,5.8,9 c1.3-2.4,3.1-5.8,6.4-9.2c5.8-5.9,14.5-9.6,24.3-9.6c9,0,17.7,2.6,23.8,8.7c7.7,7.6,10,16.9,10,32.2V168h-12.2v-47.6 c0-9.2-1.5-17.4-6.6-23c-3.6-4.5-9.2-7.2-17.6-7.2c-7.7,0-15.3,3.1-19.4,9c-4.4,6.1-5.3,10.9-5.3,20.7V168h-12.2v-48.1 c0.3-9.6-1.1-15.3-4.6-20.6c-4.1-5.6-10.4-9-19.4-9.2c-8.2-0.3-15.1,3.7-18.7,8.8c-3.8,5-5.9,11.6-5.9,20.7V168"></path> <path class="st0" d="M539.7,168v-48.2c0-9.2-2.1-15.8-5.9-20.7c-3.6-5.1-10.5-9.2-18.7-8.8c-9,0.2-15.3,3.5-19.4,9.2 c-3.5,5.3-4.9,10.9-4.6,20.6V168h-12.2v-48.1c0-9.8-0.8-14.6-5.3-20.7c-4.1-5.9-11.7-9-19.4-9c-8.4,0-14,2.7-17.6,7.2 c-5.1,5.6-6.6,13.8-6.6,23V168h-12.2v-48.1c0-15.3,2.3-24.6,10-32.2c6.1-6.1,14.8-8.7,23.8-8.7c9.9,0,18.6,3.7,24.3,9.6 c3.3,3.4,5.1,6.8,6.4,9.2c0.5-1,3.5-6.8,5.8-9c6.2-6.9,15-9.8,24.2-9.8c10,0,22.3,5.1,27.9,16.1"></path> </g> <g> <path class="st1" d="M760,96.9c5.5-11.3,18.4-18.2,35.3-17.8c29.5,0.3,39.9,18.6,39.9,39.7V168h-12.9v-46.8 c0-18.6-9.2-31.3-30.5-31c-19.6,0.2-30.9,10.9-30.9,28.9V168"></path> <path class="st1" d="M829,168v-48.9c0-18-11.3-28.8-30.9-28.9c-21.4-0.3-30.5,12.4-30.5,31V168h-12.9v-49.2 c0-21.1,10.4-39.4,39.9-39.7c17-0.3,29.8,6.6,35.3,17.8"></path> </g> <path class="st1" d="M662.5,49h12.2v71.7c0,7.4,0.3,13.1,0.8,17.1c0.5,4,1.5,7.1,2.8,9.4c3.5,5.5,9.1,8.2,16.6,8.1h26.9V168h-26.9 c-5.9,0-11.5-0.9-15-2.6c-3.5-1.7-8.3-4.8-10.9-9.1c-2.4-3.8-4.1-8.4-5-13.8c-1-5.4-1.5-12.7-1.5-22V49z"></path> </g> <g> <path class="st1" d="M108.3,189.4L62.2,240c0,0-53.5-52.6-61.6-123.6S62.3,8.3,62.3,8.3"></path> <path class="st1" d="M57.7,11.3c33.6-26.4,98.8-4.7,142.4,48.4s49.1,120.2,15.6,146.7s-96.2,9.9-139.8-43.2S24.1,37.7,57.7,11.3z M147.8,127.7c16.7,23.7,43.9,35,54.2,22c10.2-13-2.6-62.1-27-85.1c-20.5-19.2-44.1-29.8-59.7-16.9l-1,1c0,0-18.2,11.4-10.4,42.4 c7.6,30.3,27.8,54.1,27.8,54.1l14.3-15.9L147.8,127.7z"></path> </g> </g> </svg> 