<?xml version="1.0" encoding="UTF-8" standalone="no"?>
<svg id="Capa_1" data-name="Capa 1" width="74px" height="47px" xmlns="http://www.w3.org/2000/svg" viewBox="0 0 126.91 69.79">
<defs><style>.cls-1{fill:#e43d30;}.cls-2{fill:#fff;}</style></defs>
<path class="cls-1" d="M47.45,24.82l16-16.14A18.92,18.92,0,0,0,60.57,5c-7-7-14.75-5.74-20.24-.21l-20,20.14c-5.49,5.52-6.71,13.24.33,20.24s14.75,5.73,20.24.21l4-4C41.32,35.45,42.92,29.38,47.45,24.82Z"/>
<path class="cls-1" d="M74.59,24.73l16-16.13A18.52,18.52,0,0,0,87.7,4.89c-7-7-14.75-5.73-20.23-.21l-4,4c3.54,5.92,1.93,12-2.6,16.53l-16,16.15a18.47,18.47,0,0,0,2.93,3.7c7,7,14.75,5.73,20.24.21l4-4C68.46,35.36,70.06,29.3,74.59,24.73Z"/>
<path d="M63.5,8.68l-16,16.14c-4.53,4.56-6.13,10.63-2.59,16.54l16-16.15C65.43,20.65,67,14.6,63.5,8.68Z"/>
<path class="cls-1" d="M114.84,4.81c-7-7-14.75-5.74-20.24-.21l-4,4c3.54,5.91,1.94,12-2.59,16.53L72,41.28A19.53,19.53,0,0,0,74.92,45c7,7,14.76,5.73,20.25.2l20-20.14C120.66,19.52,121.88,11.8,114.84,4.81Z"/>
<path d="M90.63,8.6l-16,16.13C70.06,29.3,68.46,35.36,72,41.28L88,25.13C92.57,20.57,94.17,14.51,90.63,8.6Z"/>
<path class="cls-2" d="M44.43,59.62h2.41l2.69,4.3,2.66-4.31H54.6l0,10.17H52.41l0-6.63-2.85,4.35h-.06l-2.84-4.29,0,6.59H44.47Z"/>
<path class="cls-2" d="M57.69,59.58l7.67,0v2l-5.45,0v2.07l4.79,0v2H59.93v2.14l5.52,0v2l-7.73,0Z"/>
<path class="cls-2" d="M70.34,67.69l0-6.13h1.73a2.91,2.91,0,0,1,3.07,3v0a2.89,2.89,0,0,1-3.05,3Zm-2.23,2h4a5.09,5.09,0,0,0,5.39-5.1v0a5.07,5.07,0,0,0-5.42-5h-4Z"/>
<path class="cls-2" d="M79.39,59.51h2.24l0,10.16H79.42Z"/>
<path class="cls-2" d="M87.39,65.4l1.34-3.3,1.36,3.29Zm-4,4.27h2.28l.92-2.28,4.3,0,.94,2.28h2.33L89.78,59.41H87.72Z"/>
<path class="cls-2" d="M98.15,64.58V61.47h1.73c1.12,0,1.82.53,1.82,1.53v0a1.58,1.58,0,0,1-1.76,1.55Zm-2.22,5h2.24V66.57h1.7c2.28,0,4.1-1.23,4.1-3.58v0c0-2.08-1.48-3.51-3.91-3.5H95.9Z"/>
<path class="cls-2" d="M108.14,64.36V61.44h2.23c1.08,0,1.75.48,1.76,1.44v0c0,.86-.63,1.44-1.71,1.44Zm-2.22,5.24h2.24V66.34h1.76l2.18,3.25h2.62l-2.5-3.63a3.14,3.14,0,0,0,2.17-3.15v0a3.16,3.16,0,0,0-.88-2.32,4,4,0,0,0-3-1l-4.65,0Z"/>
<path class="cls-2" d="M121.53,67.65a3.09,3.09,0,0,1-3.09-3.18v0a3,3,0,0,1,3-3.17,3.09,3.09,0,0,1,3.09,3.18v0A3,3,0,0,1,121.53,67.65Zm0,2.07a5.26,5.26,0,0,0,5.4-5.27v0a5.41,5.41,0,0,0-10.81.06v0A5.21,5.21,0,0,0,121.51,69.72Z"/>
<path class="cls-2" d="M0,64.53v0a5.07,5.07,0,0,1,5.07-5.23,5.34,5.34,0,0,1,3.77,1.34l-.74.87A4.28,4.28,0,0,0,5,60.32a4,4,0,0,0-3.85,4.15v0a3.91,3.91,0,0,0,4,4.2,4.77,4.77,0,0,0,2.92-1V65.18H5v-1H9.2v4a6.11,6.11,0,0,1-4.06,1.55A5,5,0,0,1,0,64.53Z"/>
<path class="cls-2" d="M11.77,59.44h4.35a4,4,0,0,1,2.87,1,2.82,2.82,0,0,1,.78,2v0A3,3,0,0,1,17,65.42l3.1,4.13h-1.4L15.8,65.62H12.91v3.93H11.77ZM16,64.6c1.51,0,2.6-.78,2.6-2.08v0c0-1.24-1-2-2.59-2H12.91v4.1Z"/>
<path class="cls-2" d="M22.06,65.32V59.44H23.2v5.81c0,2.18,1.15,3.41,3.09,3.41s3-1.13,3-3.34V59.44h1.14v5.79c0,3-1.69,4.48-4.22,4.48S22.06,68.18,22.06,65.32Z"/>
<path class="cls-2" d="M33.18,59.44H37c2.28,0,3.79,1.22,3.79,3.21v0c0,2.18-1.82,3.31-4,3.31H34.32v3.56H33.18ZM36.82,65c1.67,0,2.77-.9,2.77-2.23v0c0-1.44-1.08-2.19-2.72-2.19H34.32V65Z"/></svg>