<svg id="Capa_1" data-name="Capa 1" xmlns="http://www.w3.org/2000/svg" viewBox="0 0 1080 1080"><path d="M740.7,594.54s0,13.75.08,27.76a6.53,6.53,0,0,0,.33,1.27,98.68,98.68,0,0,1,10.19.82,35.55,35.55,0,0,1,29.4,34.07c.39,15.59.42,31.22,0,46.81-.54,18.91-15.92,33.8-34.82,34.45-1.55,0-3.11,0-5.47,0,2.07,20.43-.17,38.5-23.56,45H683.37V770.37h26c11.51,0,17-5.47,17-16.86V740c-1.66-.09-2.88-.17-4.11-.21-12.51-.42-21.54-9.44-21.61-22q-.18-36.08,0-72.14c.07-12.39,8.95-21.16,21.39-21.66,1.25,0,2.49,0,4,0V609s-22.14-.2-33.28-.19q-158.37.18-316.74,0c-7.34,0-12.93-.15-22.21.15v13.69a3.83,3.83,0,0,0,1,.45c17.83,1.37,24.48,8.55,24.48,26.45q0,32.25,0,64.5c0,16.41-7.33,24.09-23.87,25a12.7,12.7,0,0,0-1.77.39c0,6.14-.39,12.33.1,18.45.55,6.74,6.33,11.85,13.1,12.43,1.59.13,3.19,0,4.78,0H640.36v14.34H363.15c-4.14-1.94-8.67-3.33-12.35-5.92-7.63-5.37-11.3-13.18-11.52-22.5-.13-5.55,0-11.11,0-16.82-4.23-.47-8.2-.56-12-1.41a35.16,35.16,0,0,1-28-33.71q-.52-23.18,0-46.36c.46-19.38,16-34.37,35.43-34.82,1.27,0,2.54,0,4.56,0V618c0-12.43,0-23.05,0-23.05s14.61-.44,30.77-.39c14.1-.14,25.83-.15,25.83-.15s9.81,0,14.93-.14h60.09c0-9.18-.53-18.25.14-27.24.76-10-1.87-17.73-9-25.46-14.46-15.65-21.41-35.11-23.52-56.6-3.28-.38-6.58-.64-9.84-1.14-11.47-1.73-18.72-9.92-19-21.52q-.17-7.41.09-14.81c.27-8,4-14.07,11-17.8,2.74-1.47,3.4-3.16,3.3-6-.63-18.6.68-37,8-54.35,2.71-6.4,6.06-12.53,9.41-19.38L454,358c-13.74,21-17,44.09-15.3,68.56H489.2c0-2.55-.06-5,0-7.48.33-11.37,8.83-20.59,20.18-20.77q30.57-.49,61.16,0c11.38.19,19.87,9.34,20.22,20.73.07,2.36,0,4.73,0,7.45H641c4.9-42.93-14.34-83.28-50.42-98.22-4.3-1.78-9-2.68-14-4.15v46.29H562.12v-5.58c0-15.29,0-30.58,0-45.88,0-7.1-2.32-9.33-9.51-9.34-8.76,0-17.52-.06-26.28,0-5.9,0-8.45,2.52-8.48,8.43-.06,15.45,0,30.9,0,46.36v6H503.53V324.62c-17.11,2.34-30.06,11-41.56,22.85l-11-9.87c2.52-2.25,4.82-4.32,7.14-6.38,12.41-11.05,26.52-18.55,43.16-20.91,1.39-.2,3.36-1,3.86-2.11,3.18-6.9,8.9-10.52,15.7-12.91h38.24c6.83,2.35,12.52,6,15.68,12.92.46,1,2.17,1.83,3.41,2,30.49,4.87,51,23,65.2,49.29,9.76,18.09,13.11,37.7,12.62,58.08a34.8,34.8,0,0,0,.1,7.15,6.81,6.81,0,0,0,2.56,4.33c7.73,4.5,11.59,11.09,11.65,20,0,4.62.14,9.24,0,13.86-.42,11.23-7.76,19.22-19.12,20.92-3.11.46-6.27.69-9.65,1.06-1.45,13.83-4.49,27.24-11.64,39.07-5.31,8.78-12.09,16.66-18.17,25-1,1.35-2.47,2.87-2.49,4.32-.19,13.51-.11,27-.11,40.89H668.9M626.8,484.9c-58.09,7.31-115.78,6.92-173.59.08,3.29,40.26,37.63,78.8,86.24,79.38C583.7,564.89,623.07,529.74,626.8,484.9ZM540,441.22H466c-11.3,0-22.61-.06-33.91,0-5.51.05-7.91,2.38-8.09,7.78-.15,4.45-.06,8.92,0,13.37a6.61,6.61,0,0,0,5.48,6.86,48.7,48.7,0,0,0,7.54.93c22.23,1.5,44.45,3.08,66.69,4.4,14.44.86,28.93,2.2,43.35,1.74,22.73-.72,45.42-2.78,68.12-4.27,10.48-.69,21-1.31,31.44-2.06,7-.51,9.3-3,9.36-9.88,0-2.86,0-5.73,0-8.59,0-8.52-1.83-10.31-10.43-10.31ZM350.93,670.88V656.32h13.78c.15-1.23.27-1.86.28-2.48,0-2.71.08-5.42,0-8.12-.17-5.51-2.79-8.13-8.33-8.19-7.16-.08-14.33-.1-21.5,0-12,.16-21.34,9-21.57,21q-.43,22.69,0,45.39c.21,10.81,8.71,19.95,19,20.51,8.41.46,16.87.21,25.31.15,4.18,0,6.55-2.6,7-6.49.4-3.71.09-7.51.09-11.69H351V692h13.76V670.88ZM715,706.53c0,3.92-.08,7.24,0,10.56.15,5.55,2.73,8.2,8.26,8.28,7.32.11,14.65.16,22,0a21.26,21.26,0,0,0,21.16-21q.43-22.7,0-45.39c-.21-11-8.8-20.11-19.38-20.63-8.26-.41-16.56-.15-24.84-.1-4.17,0-6.6,2.5-7,6.4-.4,3.73-.09,7.53-.09,11.91H729V671H715.19v21.13h13.73v14.39ZM485.45,594.24H594.34V563.16c-36.5,20.83-72.61,20.66-108.89-.1Zm198.15.26c9.94,0,19.31.12,28.68,0m3-28M576.42,426.56c0-2.55.08-4.76,0-7-.2-4.33-2.58-6.94-6.86-7q-29.56-.18-59.12,0c-4.27,0-6.67,2.64-6.84,7-.09,2.2,0,4.4,0,6.94Z" fill="#2c7d9d"/><path d="M654.7,784.71v-14H669v14Z" fill="#2c7d9d"/><path d="M640.63,623.41h13.72v13.82H640.63Z" fill="#2c7d9d"/><path d="M669,637.13c0-3.9,0-7.39,0-10.87,0-.78.09-1.56.15-2.7h13.87v13.57Z" fill="#2c7d9d"/><path d="M589.6,702a23.78,23.78,0,0,0-4,2.23c-10.15,8.47-20.21,17-30.34,25.53a39.84,39.84,0,0,1-3.73,2.51c-.58-1.54-1.66-3.08-1.67-4.62-.12-13.27,5.21-24.25,14.56-33.44,9.55-9.4,21.87-12.42,34.43-14.49,8.11-1.34,16.37-1.79,25.06-2.7a26,26,0,0,1,0,4.38c-3.54,16.79-8.69,33-19.06,47-8.4,11.32-19.2,18.56-34,18.27a5.67,5.67,0,0,1-2.16-.15c-5.63-2.62-10,.24-14.82,2.73-23.34,11.89-46.5,11-68.35-3.45-21.63-14.32-31.16-35.31-29.6-61,1.8-29.68,25.57-55.56,54.47-60.27,31.42-5.12,61.75,11.17,73.43,39.42.28.67.9,1.48.72,2a54,54,0,0,1-2.21,5.07c-1.53-.8-3.59-1.22-4.46-2.47-1.8-2.6-2.78-5.76-4.42-8.49A59.29,59.29,0,0,0,488,641.92a60,60,0,0,0-21.91,66.8,59.4,59.4,0,0,0,56.6,40.89c16.14-.11,30.33-5.58,41.86-16.82,7.8-7.61,14.87-16,22.15-24.1a45,45,0,0,0,3.77-5.73Z" fill="#2c7d9d"/><path d="M553.92,687.85c-7.66-21.34-21.93-30.11-39.25-24.52-15.28,4.92-23.58,20.69-19.26,36.6,4.6,16.91,20,23.92,41.24,18.89,0,4.1.15,8.24-.12,12.35,0,.8-1.6,1.93-2.63,2.15-3.34.72-5.25,2.31-6.11,5.86-.36,1.46-2.92,3.37-4.48,3.38-4,0-8.07-.84-12.08-1.51-2.66-.45-4.19-2-3.53-4.92s-.8-4.68-3.29-5.9a28.94,28.94,0,0,1-4.18-2.35c-2.29-1.64-4.45-1.94-6.76-.06s-4.54,1.5-6.42-.81c-1.75-2.13-3.53-4.24-5.25-6.4-2.77-3.48-4.52-6.83.23-10.34.88-.66.93-2.92.78-4.39-.17-1.85-1.14-3.61-1.41-5.46-.45-3-1.92-4.83-5-5.19-2.71-.32-3.75-1.89-3.58-4.48.18-2.75.17-5.54.58-8.26.64-4.22,1.1-8.2,7.48-7.7,4.29.34,8.92-10,6.54-13.73-1.58-2.46-1.34-4.41.75-6.13,3-2.49,6.13-4.89,9.3-7.19,2.19-1.59,4.09-1.29,6.1.83,4.23,4.45,14.58,1.52,15.95-4.49.66-2.91,2.39-3.84,5-3.64,3,.22,6.08.57,9.11.95,4.17.54,7.26,1.88,6.45,7.19-.19,1.22,1.36,3,2.53,4a11.78,11.78,0,0,0,4.88,2.8c2,.45,4.6.74,6.25-.16,2.83-1.55,4.91-1.56,6.88.9,2.35,3,4.94,5.8,6.73,9.08.76,1.39.43,4.45-.64,5.55-2.18,2.23-3.32,4.15-2.2,7.28a3.59,3.59,0,0,1-1.08,3.14C560.51,683.53,557.32,685.54,553.92,687.85Z" fill="#2c7d9d"/></svg>